<svg width="409" height="523" viewBox="0 0 409 523" fill="none" xmlns="http://www.w3.org/2000/svg">
<path d="M109 181.621C109 149.278 109.059 116.936 109 84.5938C109 74.3461 111.43 64.7501 115.46 55.5094C124.291 35.4287 138.219 19.9091 157.896 9.83913C167.439 4.98185 177.633 1.90167 188.301 0.71697C203.592 -1.00085 218.587 0.243048 232.989 5.81114C258.771 15.8811 277.915 33.1778 288.939 58.8858C294.51 71.8583 297.058 85.4823 296.999 99.5803C296.94 160.711 296.999 221.782 296.999 282.913C296.999 285.638 295.695 287 293.087 287C233.108 287 173.128 287 113.149 287C110.422 287 109.059 285.697 109.059 283.091C109.059 249.267 109.059 215.444 109.059 181.621H109ZM111.726 125.229C112.2 124.577 112.438 124.4 112.497 124.163C120.498 106.807 133.774 96.737 152.977 94.9599C155.407 94.723 157.067 93.6568 158.489 91.5243C163.764 83.7053 170.165 76.9525 177.692 71.2067C184.093 66.2902 191.027 62.4399 198.436 59.4189C199.918 58.8265 201.162 58.1749 201.103 56.161C201.044 39.3382 201.103 22.5155 201.103 5.69269C201.103 4.09335 200.688 3.38253 198.969 3.38253C194.82 3.3233 190.672 3.501 186.641 4.21182C165.009 7.82516 146.754 17.4805 132.53 34.3032C119.668 49.5267 112.615 67.1787 111.845 87.1409C111.43 97.8625 111.726 108.643 111.726 119.424C111.726 121.201 111.726 122.978 111.726 125.288V125.229ZM145.924 217.754C145.924 238.723 145.924 259.633 145.924 280.603C145.924 282.913 146.398 283.801 148.947 283.801C165.364 283.683 181.841 283.683 198.258 283.801C200.807 283.801 201.281 282.913 201.221 280.603C201.103 268.578 201.044 256.553 201.221 244.528C201.34 237.657 200.451 231.023 198.969 224.389C192.153 193.882 175.795 170.248 149.184 153.78C148.354 153.247 147.465 152.299 146.517 152.773C145.45 153.306 146.043 154.61 146.043 155.557C146.043 176.29 146.043 197.081 146.043 217.813L145.924 217.754ZM258.949 218.11C258.949 197.081 258.949 176.053 258.949 155.024C258.949 154.313 259.304 153.425 258.652 153.01C257.941 152.596 257.349 153.425 256.756 153.78C246.562 159.882 237.671 167.464 230.085 176.586C213.431 196.548 204.778 219.531 204.481 245.535C204.363 257.264 204.481 269.052 204.422 280.84C204.422 283.327 205.192 283.92 207.563 283.861C223.743 283.742 239.864 283.742 256.045 283.861C258.475 283.861 259.127 283.209 259.127 280.78C259.008 259.93 259.127 239.079 259.127 218.228L258.949 218.11ZM293.621 123.097C293.621 116.758 293.561 110.42 293.621 104.082C293.739 93.1237 292.969 82.2836 289.828 71.6806C282.3 46.4464 267.069 27.3727 243.954 14.6964C232.397 8.29902 219.891 4.92262 206.793 3.50098C204.363 3.26404 204.303 4.50798 204.303 6.28504C204.303 22.7524 204.363 39.1605 204.303 55.6279C204.303 57.9973 205.252 59.0635 207.267 59.8928C223.625 66.7641 236.782 77.5448 246.68 92.2351C247.984 94.1899 249.584 94.96 251.955 95.0784C265.883 95.6115 277.026 101.89 285.975 112.316C288.82 115.633 290.954 119.483 293.561 123.097H293.621ZM293.621 212.008V194.356C293.621 177.237 293.621 160.178 293.621 143.059C293.621 141.459 293.917 139.801 291.309 140.334C282.123 142.23 273.232 145.132 264.757 149.16C262.92 150.049 262.268 151.233 262.268 153.247C262.268 195.778 262.268 238.368 262.268 280.899C262.268 283.327 263.098 283.742 265.29 283.742C273.647 283.624 282.004 283.624 290.361 283.742C293.028 283.742 293.739 283.031 293.739 280.366C293.621 257.56 293.739 234.814 293.739 212.008H293.621ZM112.26 211.771C112.26 234.577 112.26 257.383 112.26 280.129C112.26 282.794 112.734 283.801 115.697 283.742C123.58 283.505 131.522 283.564 139.405 283.742C141.835 283.742 142.724 283.209 142.664 280.603C142.605 238.25 142.664 195.837 142.664 153.484C142.664 150.878 141.716 149.515 139.345 148.508C131.64 145.251 123.876 142.23 115.638 140.689C112.319 140.038 112.26 139.979 112.26 143.414C112.26 166.22 112.26 189.025 112.26 211.771ZM201.044 216.155C201.044 215.148 201.044 214.141 201.044 213.134C201.044 190.151 200.984 167.227 201.044 144.244C201.103 129.672 195.947 117.588 184.745 108.229C177.751 102.364 169.631 98.9879 160.445 98.2771C158.785 98.1586 157.778 98.6917 156.948 100.173C149.125 113.797 145.806 128.546 145.687 144.184C145.687 147.087 146.695 148.627 149.125 149.989C165.364 159.171 178.166 171.906 187.945 187.722C193.457 196.667 197.488 206.263 200.984 216.155H201.044ZM204.303 217.873H204.718C204.955 217.043 205.192 216.273 205.429 215.503C210.527 197.91 219.002 182.272 231.863 169.122C238.916 161.896 246.68 155.735 255.333 150.582C257.882 149.042 258.949 146.968 258.949 144.007C258.949 128.546 255.274 114.034 247.925 100.469C246.977 98.751 245.91 98.0994 243.954 98.3363C236.842 99.3433 230.204 101.594 224.277 105.622C211.356 114.448 204.837 126.947 204.422 142.407C204.066 155.557 204.303 168.708 204.303 181.799C204.303 193.823 204.303 205.848 204.303 217.873ZM202.762 128.961C203.296 127.658 203.592 127.006 203.889 126.295C206.319 120.194 209.638 114.626 214.083 109.769C221.669 101.476 231.27 97.0924 242.057 95.1376C244.072 94.7822 244.072 94.1899 243.065 92.7682C233.167 79.0257 220.424 68.8373 204.718 62.4399C203.059 61.7883 201.577 61.7883 199.918 62.4399C184.271 68.7188 171.587 78.848 161.749 92.4721C160.504 94.2491 160.682 94.723 162.934 95.0784C176.21 97.3294 187.353 103.253 195.295 114.448C198.317 118.713 200.451 123.452 202.762 128.902V128.961ZM250.829 98.2771C251.007 98.9879 251.066 99.2841 251.185 99.5211C258.771 113.441 262.446 128.309 262.09 144.125C262.09 146.791 263.394 145.843 264.639 145.31C272.758 141.815 281.056 138.972 289.709 137.135C292.791 136.484 292.909 135.121 292.317 132.633C289.116 119.246 281.293 109.413 269.261 102.957C263.69 99.9949 257.586 98.1587 250.888 98.2179L250.829 98.2771ZM112.793 135.003C112.497 136.543 113.386 136.78 114.69 137.017C123.343 138.675 131.759 141.341 139.819 144.954C142.368 146.08 142.546 145.961 142.546 143.118C142.309 128.25 145.806 114.211 152.562 101.002C152.918 100.232 153.985 99.4026 153.214 98.5733C152.621 97.9217 151.495 98.3364 150.547 98.4548C138.99 100.173 129.507 105.622 122.039 114.626C117.179 120.549 114.097 127.362 112.852 134.944L112.793 135.003Z" fill="#806666"/>
<path d="M0 414.578C0 371.689 23.853 349.735 51.1797 349.735C80.6369 349.735 101.804 375.209 101.804 415.365C101.804 458.208 77.9506 480.208 50.6239 480.208C21.1666 480.208 0 454.734 0 414.578ZM56.5524 471.639C83.6012 471.639 93.5129 453.159 93.5129 421.525C93.5129 379.47 74.1989 358.303 45.2975 358.303C18.2487 358.303 8.33697 376.783 8.33697 408.418C8.33697 450.473 27.6509 471.639 56.5524 471.639Z" fill="#806666"/>
<path d="M113.896 415.643C113.896 372.244 137.749 349.734 170.17 349.734C179.526 349.734 189.716 351.633 194.811 352.699L192.68 362.332C181.703 360.202 171.236 359.137 163.455 359.137C131.033 359.137 122.187 377.339 122.187 407.074C122.187 452.094 142.797 471.361 170.402 471.361C181.657 471.361 189.716 468.166 198.284 463.302L196.663 472.658C191.846 476.132 182.722 480.162 168.781 480.162C134.738 480.162 113.85 456.031 113.85 415.596L113.896 415.643Z" fill="#806666"/>
<path d="M208.979 415.642C208.979 372.244 232.831 349.734 265.253 349.734C274.609 349.734 284.799 351.633 289.893 352.698L287.763 362.332C276.786 360.202 266.318 359.136 258.583 359.136C226.162 359.136 217.315 377.339 217.315 407.074C217.315 452.094 237.926 471.361 265.531 471.361C276.786 471.361 284.845 468.165 293.413 463.302L291.792 472.658C286.975 476.132 277.851 480.161 263.91 480.161C229.867 480.161 208.979 456.03 208.979 415.596V415.642Z" fill="#806666"/>
<path d="M314.308 426.897V403.044C314.308 380.535 313.752 364.741 310.834 351.355H322.598V384.842C328.758 363.675 341.079 349.734 362.245 349.734C367.34 349.734 372.713 350.522 375.121 351.355L373.778 360.202C367.896 359.136 362.523 358.349 357.428 358.349C325.007 358.349 322.598 391.836 322.598 430.695C322.598 451.075 323.154 466.081 324.729 478.633H312.131C313.752 465.247 314.261 449.407 314.261 426.944L314.308 426.897Z" fill="#806666"/>
<path d="M397.349 303.372C402.444 303.372 405.918 306.846 405.918 311.94C405.918 317.035 402.444 320.509 397.349 320.509C392.532 320.509 389.059 317.035 389.059 311.94C389.059 306.846 392.532 303.372 397.349 303.372ZM393.32 426.898V403.045C393.32 380.535 392.764 364.741 391.189 351.356H403.787C402.166 364.741 401.657 380.535 401.657 403.045V426.898C401.657 449.408 402.212 465.201 403.787 478.587H391.189C392.81 465.201 393.32 449.361 393.32 426.898Z" fill="#806666"/>
<path d="M0.0884132 513.091C0.0884132 506.836 3.26338 503.945 7.90734 503.945C9.32896 503.945 10.8453 504.182 11.8405 504.372L11.4614 506.078C9.89761 505.793 7.95472 505.509 6.48571 505.509C2.26823 505.509 1.60481 508.021 1.60481 511.906C1.60481 518.351 3.92679 520.768 7.85994 520.768C9.75544 520.768 10.8454 520.199 12.267 519.204L11.9353 521.147C11.2718 521.621 9.85021 522.284 7.67039 522.284C2.7421 522.284 0.0410156 518.825 0.0410156 513.044L0.0884132 513.091Z" fill="#806666"/>
<path d="M13.4023 513.091C13.4023 506.884 16.909 503.993 20.8896 503.993C25.2018 503.993 28.3768 507.452 28.3768 513.328C28.3768 519.489 24.8701 522.427 20.8896 522.427C16.6247 522.427 13.4023 518.967 13.4023 513.139V513.091ZM21.7899 520.815C25.5809 520.815 26.813 518.493 26.813 513.897C26.813 508.068 23.8276 505.509 19.9418 505.509C16.0561 505.509 14.9661 507.784 14.9661 512.333C14.9661 518.257 17.9516 520.815 21.7899 520.815Z" fill="#806666"/>
<path d="M39.7544 507.262C39.3753 508.351 38.9962 509.631 38.6171 511.1L35.4896 522.094H35.3474C34.2575 522.094 34.0205 522.094 33.831 522.283L31.1773 511.1C30.2296 507.262 29.6135 504.797 29.1396 504.229H31.4143C31.4143 504.987 32.0303 507.356 32.8359 510.958L34.8262 519.772L37.2903 510.958C38.2854 507.356 38.9015 504.892 38.8541 504.229H40.9391C40.8443 504.892 41.5552 507.356 42.5977 510.958L45.1092 519.772L47.0521 510.958C47.8577 507.356 48.3315 504.987 48.2842 504.229H50.3692C50.0849 504.845 49.2793 507.262 48.4263 511.1L45.8674 522.094H45.7726C44.588 522.094 44.351 522.094 44.1614 522.283L40.9391 511.1C40.5126 509.631 40.1335 508.304 39.8018 507.262H39.7544Z" fill="#806666"/>
<path d="M50.9775 513.091C50.9775 506.884 54.4842 503.993 58.4648 503.993C62.777 503.993 65.952 507.452 65.952 513.328C65.952 519.489 62.4453 522.427 58.4648 522.427C54.1999 522.427 50.9775 518.967 50.9775 513.139V513.091ZM59.3651 520.815C63.1561 520.815 64.3882 518.493 64.3882 513.897C64.3882 508.068 61.4028 505.509 57.517 505.509C53.6312 505.509 52.5413 507.784 52.5413 512.333C52.5413 518.257 55.5268 520.815 59.3651 520.815Z" fill="#806666"/>
<path d="M70.17 514.086V515.034C70.17 518.967 70.2648 521.431 70.5017 522.047H68.3219C68.5588 521.431 68.6062 518.967 68.6062 515.034V511.196C68.6062 507.499 68.6062 505.983 68.1797 504.182H75.0983C78.8419 504.182 80.0265 506.599 80.0265 508.732C80.0265 511.433 78.2259 513.849 75.0983 513.849H72.3498L80.69 522.047H78.2258L70.17 514.039V514.086ZM74.9087 512.523C77.3255 512.523 78.4628 511.67 78.4628 509.395C78.4628 507.12 77.4676 505.557 74.5296 505.557H70.2647C70.2647 505.557 70.2173 505.557 70.2173 506.22V512.475H74.9561L74.9087 512.523Z" fill="#806666"/>
<path d="M82.7253 515.081V511.243C82.7253 507.31 82.6305 504.846 82.441 504.23H84.6208C84.3838 504.846 84.2891 507.263 84.2891 511.243V512.57C88.3644 507.973 90.0703 505.794 91.3498 504.23H93.5296C92.0132 505.794 90.1177 507.831 85.5685 512.759L94.2878 522.095H91.9658L84.4786 513.897L84.2417 514.134V515.034C84.2417 518.967 84.3365 521.431 84.5734 522.047H82.3936C82.6305 521.431 82.6779 518.967 82.6779 515.034L82.7253 515.081Z" fill="#806666"/>
<path d="M96.2863 515.081V511.243C96.2863 507.31 96.1915 504.846 96.002 504.23H98.1818C97.9448 504.846 97.8501 507.263 97.8501 511.243V515.081C97.8501 519.015 97.9448 521.479 98.1818 522.095H96.002C96.2389 521.479 96.2863 519.015 96.2863 515.081Z" fill="#806666"/>
<path d="M102.156 506.599V515.081C102.156 519.015 102.156 521.431 102.393 522.095H100.782C101.019 521.431 101.067 519.015 101.067 515.081V511.243C101.067 507.31 101.019 504.846 100.782 504.23H102.82L111.16 519.678V511.196C111.16 507.357 111.16 504.941 110.828 504.182H112.582C112.345 504.941 112.297 507.215 112.297 511.196V515.034C112.297 518.967 112.297 521.431 112.582 522.047H110.544L102.156 506.504V506.599Z" fill="#806666"/>
<path d="M114.957 512.902C114.957 506.884 118.132 503.993 122.776 503.993C124.15 503.993 125.714 504.23 126.709 504.419L126.33 506.125C124.814 505.841 122.823 505.557 121.354 505.557C117.137 505.557 116.473 508.068 116.473 512.001C116.473 518.446 118.795 520.815 123.629 520.815C126.188 520.815 126.33 520.152 126.33 517.783V517.593C126.33 515.555 126.235 514.56 126.046 513.613H128.226C127.989 514.56 127.894 515.555 127.894 517.593V517.877C127.894 520.815 125.951 522.332 122.823 522.332C117.8 522.332 114.862 518.873 114.862 512.854L114.957 512.902Z" fill="#806666"/>
<path d="M136.845 507.451V515.08C136.845 519.014 136.94 521.478 137.177 522.094H135.565C135.802 521.478 135.85 519.014 135.85 515.08V511.242C135.85 507.309 135.755 504.845 135.565 504.229H137.224L143.479 520.104L149.071 504.655V504.276H150.966C150.729 504.892 150.635 507.309 150.635 511.29V515.128C150.635 519.061 150.729 521.525 150.966 522.141H148.787C149.023 521.525 149.071 519.061 149.071 515.128V507.783L143.858 522.094V522.189H142.626L136.892 507.546L136.845 507.451Z" fill="#806666"/>
<path d="M153.714 517.45V511.242C153.714 507.309 153.619 504.845 153.43 504.229H155.61C155.373 504.845 155.278 507.262 155.278 511.242V517.308C155.278 519.961 157.505 520.814 160.064 520.814C162.86 520.814 163.428 519.914 163.428 517.308V511.242C163.428 507.309 163.334 504.845 163.144 504.229H165.324C165.087 504.845 164.992 507.262 164.992 511.242V517.45C164.992 520.53 162.291 522.378 159.258 522.378C156.794 522.378 153.667 521.193 153.667 517.45H153.714Z" fill="#806666"/>
<path d="M171.823 522.094H167.748C168.175 520.293 168.175 518.729 168.175 515.08V511.242C168.175 507.309 168.08 504.845 167.89 504.229H170.07C169.833 504.845 169.738 507.262 169.738 511.242V520.104C169.738 520.814 169.738 520.862 170.402 520.862H171.823C174.288 520.767 176.325 520.577 178.031 520.293V522.141C176.278 522.141 174.288 522.141 171.823 522.141V522.094Z" fill="#806666"/>
<path d="M182.286 515.08V505.556C179.774 505.556 178.21 505.745 177.357 506.172V504.229C177.594 504.229 179.632 504.229 183.091 504.229H183.85C186.835 504.229 188.588 504.229 188.825 504.229V506.172C187.925 505.745 186.361 505.603 183.85 505.556V515.08C183.85 519.014 183.944 521.478 184.134 522.094H181.954C182.191 521.478 182.286 519.014 182.286 515.08ZM177.357 504.229H188.825H177.357Z" fill="#806666"/>
<path d="M191.057 515.081V511.243C191.057 507.31 190.962 504.846 190.772 504.23H192.952C192.715 504.846 192.621 507.263 192.621 511.243V515.081C192.621 519.015 192.715 521.479 192.952 522.095H190.772C191.009 521.479 191.057 519.015 191.057 515.081Z" fill="#806666"/>
<path d="M194.987 521.289L195.461 519.535C196.883 520.151 198.304 520.673 200.579 520.673C203.707 520.673 204.275 519.725 204.275 517.972C204.275 511.195 195.035 514.228 195.035 508.162C195.035 504.987 197.736 503.897 200.295 503.897C202.427 503.897 203.991 504.656 204.796 504.987L204.323 506.788C203.138 505.983 201.242 505.556 199.347 505.556C197.025 505.556 196.646 506.172 196.646 507.357C196.646 513.138 205.981 510.295 205.981 517.071C205.981 520.673 203.422 522.284 199.963 522.284C197.641 522.284 195.651 521.573 194.987 521.194V521.289Z" fill="#806666"/>
<path d="M207.359 521.289L207.833 519.536C209.254 520.152 210.676 520.673 212.951 520.673C216.078 520.673 216.647 519.725 216.647 517.972C216.647 511.195 207.406 514.228 207.406 508.163C207.406 504.988 210.107 503.898 212.666 503.898C214.799 503.898 216.363 504.656 217.168 504.988L216.694 506.788C215.51 505.983 213.614 505.556 211.719 505.556C209.397 505.556 209.017 506.172 209.017 507.357C209.017 513.138 218.305 510.295 218.305 517.071C218.305 520.673 215.746 522.284 212.287 522.284C209.965 522.284 207.975 521.573 207.312 521.194L207.359 521.289Z" fill="#806666"/>
<path d="M224.277 522.095H220.202C220.629 520.294 220.629 518.73 220.629 515.081V511.243C220.629 507.547 220.629 506.03 220.202 504.23H224.088C226.552 504.23 228.542 504.23 230.296 504.23V505.888C228.542 505.699 226.552 505.699 224.088 505.604H222.524C222.24 505.557 222.192 505.509 222.192 506.22V512.096H224.325C227.121 512.096 228.732 512.049 230.153 511.954V513.612C228.732 513.518 227.121 513.47 224.325 513.47H222.192V520.152C222.192 520.863 222.24 520.863 222.524 520.863H224.277C226.742 520.768 228.779 520.673 230.485 520.484V522.142C228.732 522.142 226.742 522.142 224.277 522.142V522.095Z" fill="#806666"/>
<path d="M237.21 515.081V505.557C234.698 505.557 233.134 505.746 232.281 506.173V504.23C232.518 504.23 234.556 504.23 238.015 504.23H238.773C241.759 504.23 243.512 504.23 243.749 504.23V506.173C242.849 505.746 241.285 505.604 238.773 505.557V515.081C238.773 519.015 238.868 521.479 239.058 522.095H236.878C237.115 521.479 237.21 519.015 237.21 515.081ZM232.281 504.23H243.749H232.281Z" fill="#806666"/>
<path d="M244.417 513.091C244.417 506.884 247.924 503.993 251.904 503.993C256.169 503.993 259.391 507.452 259.391 513.328C259.391 519.489 255.885 522.427 251.904 522.427C247.639 522.427 244.417 518.967 244.417 513.139V513.091ZM252.805 520.815C256.596 520.815 257.78 518.493 257.78 513.897C257.78 508.068 254.795 505.509 250.909 505.509C247.023 505.509 245.933 507.784 245.933 512.333C245.933 518.257 248.919 520.815 252.757 520.815H252.805Z" fill="#806666"/>
<path d="M263.612 514.086V515.034C263.612 518.967 263.707 521.431 263.944 522.047H261.764C262.001 521.431 262.049 518.967 262.049 515.034V511.196C262.049 507.499 262.049 505.983 261.622 504.182H268.541C272.284 504.182 273.469 506.599 273.469 508.732C273.469 511.433 271.668 513.849 268.541 513.849H265.792L274.132 522.047H271.668L263.612 514.039V514.086ZM268.351 512.523C270.768 512.523 271.905 511.67 271.905 509.395C271.905 507.12 270.91 505.557 267.972 505.557H263.707C263.707 505.557 263.66 505.557 263.66 506.22V512.475H268.398L268.351 512.523Z" fill="#806666"/>
<path d="M276.214 515.082V511.243C276.214 507.31 276.119 504.846 275.93 504.23H278.11C277.873 504.846 277.778 507.263 277.778 511.243V515.082C277.778 519.015 277.873 521.479 278.11 522.095H275.93C276.167 521.479 276.214 519.015 276.214 515.082Z" fill="#806666"/>
<path d="M282.047 515.034L285.364 504.277H286.075C286.644 504.277 286.786 504.277 287.07 504.04L290.482 515.081C291.761 519.109 292.472 521.621 292.851 522.189H290.577C290.624 521.668 290.292 520.294 289.676 518.256H282.616C282.047 520.294 281.715 521.668 281.81 522.189H279.772C280.009 521.573 280.862 519.109 282.094 515.081L282.047 515.034ZM289.25 516.835L286.122 506.741L282.947 516.835H289.25Z" fill="#806666"/>
<path d="M298.484 522.094H294.408C294.835 520.293 294.835 518.729 294.835 515.08V511.242C294.835 507.309 294.74 504.845 294.55 504.229H296.73C296.493 504.845 296.398 507.262 296.398 511.242V520.104C296.398 520.814 296.398 520.862 297.109 520.862H298.531C300.995 520.767 303.033 520.577 304.739 520.293V522.141C302.985 522.141 300.995 522.141 298.531 522.141L298.484 522.094Z" fill="#806666"/>
<path d="M311.895 515.081V511.243C311.895 507.547 311.895 506.03 311.469 504.23H315.544C318.008 504.23 320.046 504.23 321.752 504.23V505.888C319.951 505.699 318.008 505.651 315.544 505.604H313.791C313.506 505.557 313.459 505.509 313.459 506.22V512.096H315.734C318.482 512.096 320.093 512.049 321.515 511.954V513.612C320.093 513.518 318.482 513.47 315.734 513.47H313.459V515.129C313.459 519.062 313.554 521.526 313.791 522.142H311.611C311.848 521.526 311.895 519.062 311.895 515.129V515.081Z" fill="#806666"/>
<path d="M328.193 522.095H324.117C324.544 520.294 324.544 518.73 324.544 515.081V511.243C324.544 507.547 324.544 506.03 324.117 504.23H328.003C330.467 504.23 332.505 504.23 334.211 504.23V505.888C332.457 505.699 330.467 505.699 328.003 505.604H326.439C326.155 505.557 326.107 505.509 326.107 506.22V512.096H328.24C330.988 512.096 332.647 512.049 334.068 511.954V513.612C332.647 513.518 331.036 513.47 328.24 513.47H326.107V520.152C326.107 520.863 326.155 520.863 326.439 520.863H328.193C330.657 520.768 332.694 520.673 334.4 520.484V522.142C332.647 522.142 330.657 522.142 328.193 522.142V522.095Z" fill="#806666"/>
<path d="M338.153 507.451V515.08C338.153 519.014 338.247 521.478 338.484 522.094H336.873C337.11 521.478 337.157 519.014 337.157 515.08V511.242C337.157 507.309 337.063 504.845 336.873 504.229H338.532L344.787 520.104L350.378 504.655V504.276H352.274C352.037 504.892 351.942 507.309 351.942 511.29V515.128C351.942 519.061 352.037 521.525 352.274 522.141H350.094C350.331 521.525 350.378 519.061 350.378 515.128V507.783L345.166 522.094V522.189H343.934L338.2 507.546L338.153 507.451Z" fill="#806666"/>
<path d="M355.162 515.08V511.242C355.162 507.309 355.067 504.845 354.878 504.229H357.058C356.821 504.845 356.726 507.262 356.726 511.242V515.08C356.726 519.014 356.821 521.478 357.058 522.094H354.878C355.115 521.478 355.162 519.014 355.162 515.08Z" fill="#806666"/>
<path d="M361.036 506.599V515.081C361.036 519.015 361.036 521.431 361.273 522.095H359.662C359.899 521.431 359.946 519.015 359.946 515.081V511.243C359.946 507.31 359.899 504.846 359.662 504.23H361.747L370.087 519.678V511.196C370.087 507.357 370.087 504.941 369.756 504.182H371.509C371.272 504.941 371.225 507.215 371.225 511.196V515.034C371.225 518.967 371.225 521.431 371.509 522.047H369.471L361.084 506.504L361.036 506.599Z" fill="#806666"/>
<path d="M374.404 515.08V511.242C374.404 507.309 374.309 504.845 374.119 504.229H376.299C376.062 504.845 375.967 507.262 375.967 511.242V515.08C375.967 519.014 376.062 521.478 376.299 522.094H374.119C374.356 521.478 374.404 519.014 374.404 515.08Z" fill="#806666"/>
<path d="M380.28 506.599V515.081C380.28 519.015 380.28 521.431 380.517 522.095H378.906C379.143 521.431 379.191 519.015 379.191 515.081V511.243C379.191 507.31 379.143 504.846 378.906 504.23H380.991L389.331 519.678V511.196C389.331 507.357 389.331 504.941 389 504.182H390.753C390.516 504.941 390.469 507.215 390.469 511.196V515.034C390.469 518.967 390.469 521.431 390.753 522.047H388.715L380.328 506.504L380.28 506.599Z" fill="#806666"/>
<path d="M393.076 513.091C393.076 506.884 396.583 503.993 400.563 503.993C404.876 503.993 408.051 507.452 408.051 513.328C408.051 519.489 404.544 522.427 400.563 522.427C396.299 522.427 393.076 518.967 393.076 513.139V513.091ZM401.464 520.815C405.255 520.815 406.487 518.493 406.487 513.897C406.487 508.068 403.501 505.509 399.616 505.509C395.73 505.509 394.64 507.784 394.64 512.333C394.64 518.257 397.625 520.815 401.464 520.815Z" fill="#806666"/>
</svg>
