<svg width="93" height="288" viewBox="0 0 93 288" fill="none" xmlns="http://www.w3.org/2000/svg">
<path d="M0 182.254C0 149.799 0.0586378 117.344 0 84.8886C0 74.6052 2.40414 64.9757 6.39151 55.7028C15.1285 35.5522 28.9084 19.9785 48.3762 9.87341C57.8168 4.99921 67.9025 1.9083 78.4573 0.719468C93.5859 -1.00433 108.421 0.243895 122.67 5.83139C148.178 15.9364 167.118 33.2934 178.024 59.091C183.536 72.1087 186.058 85.7802 185.999 99.9272C185.94 161.271 185.999 222.555 185.999 283.899C185.999 286.633 184.709 288 182.129 288C122.787 288 63.4461 288 4.10464 288C1.4073 288 0.0586391 286.692 0.0586391 284.077C0.0586391 250.136 0.0586391 216.195 0.0586391 182.254H0ZM2.69733 125.665C3.16643 125.012 3.40099 124.833 3.45963 124.595C11.3757 107.179 24.5106 97.0741 43.5092 95.2908C45.9134 95.053 47.5552 93.9831 48.9625 91.8432C54.1813 83.9969 60.5142 77.2206 67.9612 71.4548C74.294 66.5211 81.1547 62.6574 88.4844 59.6259C89.9503 59.0315 91.1817 58.3776 91.1231 56.3566C91.0645 39.4753 91.1231 22.5939 91.1231 5.71253C91.1231 4.10761 90.7126 3.39432 89.0121 3.39432C84.9075 3.33487 80.8028 3.5132 76.8155 4.22649C55.4127 7.85242 37.3523 17.5414 23.2792 34.4228C10.5548 49.6992 3.5769 67.4128 2.81461 87.4445C2.40415 98.2034 2.69733 109.022 2.69733 119.84C2.69733 121.623 2.69733 123.407 2.69733 125.725V125.665ZM36.5313 218.513C36.5313 239.555 36.5313 260.538 36.5313 281.58C36.5313 283.899 37.0004 284.79 39.5219 284.79C55.7645 284.671 72.0658 284.671 88.3085 284.79C90.8299 284.79 91.299 283.899 91.2404 281.58C91.1231 269.514 91.0645 257.447 91.2404 245.38C91.3576 238.485 90.4781 231.828 89.0121 225.17C82.2688 194.558 66.0848 170.841 39.7564 154.316C38.9355 153.781 38.0559 152.83 37.1177 153.306C36.0622 153.841 36.6486 155.148 36.6486 156.099C36.6486 176.904 36.6486 197.768 36.6486 218.572L36.5313 218.513ZM148.354 218.87C148.354 197.768 148.354 176.666 148.354 155.564C148.354 154.851 148.705 153.96 148.06 153.543C147.357 153.127 146.77 153.96 146.184 154.316C136.098 160.439 127.303 168.047 119.797 177.201C103.32 197.233 94.7586 220.296 94.4654 246.391C94.3482 258.16 94.4655 269.989 94.4068 281.818C94.4068 284.315 95.1691 284.909 97.5146 284.85C113.523 284.731 129.472 284.731 145.48 284.85C147.884 284.85 148.529 284.196 148.529 281.759C148.412 260.835 148.529 239.912 148.529 218.988L148.354 218.87ZM182.657 123.526C182.657 117.165 182.598 110.805 182.657 104.445C182.774 93.4481 182.012 82.5703 178.904 71.9303C171.457 46.6083 156.387 27.4681 133.518 14.7476C122.084 8.32793 109.711 4.93977 96.7523 3.51318C94.3482 3.27541 94.2895 4.52369 94.2895 6.30693C94.2895 22.8317 94.3482 39.297 94.2895 55.8217C94.2895 58.1993 95.2277 59.2693 97.2214 60.1015C113.405 66.9967 126.423 77.815 136.216 92.5565C137.506 94.5181 139.089 95.2908 141.434 95.4097C155.214 95.9447 166.238 102.245 175.092 112.707C177.907 116.036 180.018 119.9 182.598 123.526H182.657ZM182.657 212.747V195.034C182.657 177.855 182.657 160.736 182.657 143.557C182.657 141.952 182.95 140.288 180.37 140.823C171.281 142.725 162.485 145.638 154.1 149.68C152.282 150.571 151.637 151.76 151.637 153.781C151.637 196.46 151.637 239.199 151.637 281.878C151.637 284.315 152.458 284.731 154.628 284.731C162.896 284.612 171.164 284.612 179.432 284.731C182.07 284.731 182.774 284.017 182.774 281.343C182.657 258.458 182.774 235.632 182.774 212.747H182.657ZM3.22507 212.509C3.22507 235.394 3.22507 258.279 3.22507 281.105C3.22507 283.78 3.69417 284.79 6.62606 284.731C14.4249 284.493 22.2823 284.552 30.0812 284.731C32.4853 284.731 33.3649 284.196 33.3062 281.58C33.2476 239.08 33.3062 196.52 33.3062 154.019C33.3062 151.404 32.3681 150.036 30.0225 149.026C22.3996 145.757 14.7181 142.725 6.56744 141.18C3.28372 140.526 3.22507 140.466 3.22507 143.914C3.22507 166.799 3.22507 189.684 3.22507 212.509ZM91.0645 216.908C91.0645 215.898 91.0645 214.887 91.0645 213.876C91.0645 190.813 91.0058 167.809 91.0645 144.746C91.1231 130.124 86.0216 117.997 74.9391 108.606C68.0198 102.721 59.9864 99.3328 50.8976 98.6195C49.2557 98.5006 48.2589 99.0356 47.4379 100.522C39.6978 114.193 36.4141 128.994 36.2968 144.687C36.2968 147.599 37.2936 149.145 39.6978 150.512C55.7645 159.725 68.4303 172.505 78.1055 188.376C83.5588 197.352 87.5462 206.981 91.0058 216.908H91.0645ZM94.2895 218.632H94.7C94.9345 217.8 95.1691 217.027 95.4036 216.254C100.446 198.6 108.832 182.908 121.556 169.712C128.534 162.46 136.216 156.278 144.777 151.106C147.298 149.561 148.354 147.48 148.354 144.508C148.354 128.994 144.718 114.431 137.447 100.819C136.509 99.0951 135.453 98.4412 133.518 98.679C126.482 99.6895 119.914 101.948 114.05 105.99C101.267 114.847 94.8173 127.389 94.4068 142.903C94.055 156.099 94.2895 169.295 94.2895 182.432C94.2895 194.499 94.2895 206.565 94.2895 218.632ZM92.765 129.41C93.2927 128.102 93.5859 127.449 93.8791 126.735C96.2832 120.613 99.5669 115.025 103.965 110.151C111.47 101.829 120.97 97.4307 131.642 95.4691C133.635 95.1125 133.635 94.5181 132.639 93.0915C122.846 79.301 110.239 69.0771 94.7 62.6575C93.0581 62.0036 91.5922 62.0036 89.9503 62.6575C74.47 68.9583 61.9215 79.1227 52.1876 92.7943C50.9562 94.5775 51.1321 95.0531 53.3604 95.4097C66.4952 97.6685 77.5191 103.613 85.3766 114.847C88.3671 119.127 90.4781 123.882 92.765 129.351V129.41ZM140.32 98.6195C140.496 99.3328 140.555 99.6301 140.672 99.8678C148.178 113.837 151.813 128.756 151.461 144.627C151.461 147.302 152.751 146.351 153.983 145.816C162.016 142.309 170.225 139.456 178.787 137.613C181.836 136.959 181.953 135.592 181.367 133.096C178.2 119.662 170.46 109.795 158.557 103.315C153.045 100.343 147.005 98.5007 140.379 98.5601L140.32 98.6195ZM3.75281 135.473C3.45963 137.019 4.33919 137.256 5.62922 137.494C14.1903 139.159 22.5169 141.833 30.4916 145.459C33.0131 146.589 33.189 146.47 33.189 143.617C32.9544 128.697 36.4141 114.609 43.0988 101.354C43.4506 100.581 44.5061 99.7489 43.7438 98.9167C43.1574 98.2629 42.0433 98.679 41.1051 98.7979C29.6707 100.522 20.2887 105.99 12.9003 115.025C8.09201 120.97 5.04285 127.805 3.81145 135.414L3.75281 135.473Z" fill="#563939"/>
</svg>
