<svg width="226" height="88" viewBox="0 0 226 88" fill="none" xmlns="http://www.w3.org/2000/svg">
<path d="M65.8525 45.3661C65.8525 28.5475 75.2063 19.9384 85.9223 19.9384C97.4738 19.9384 105.774 29.9278 105.774 45.6749C105.774 62.4753 96.4203 71.1026 85.7043 71.1026C74.1529 71.1026 65.8525 61.1131 65.8525 45.3661ZM88.0292 67.7425C98.6362 67.7425 102.523 60.4956 102.523 48.0905C102.523 31.5988 94.9491 23.2985 83.6156 23.2985C73.0086 23.2985 69.1218 30.5454 69.1218 42.9505C69.1218 59.4422 76.6957 67.7425 88.0292 67.7425Z" fill="#806666"/>
<path d="M110.515 45.7838C110.515 28.7654 119.869 19.9384 132.583 19.9384C136.252 19.9384 140.248 20.683 142.245 21.1008L141.41 24.8786C137.105 24.0431 133.001 23.6254 129.949 23.6254C117.235 23.6254 113.766 30.7633 113.766 42.4237C113.766 60.0779 121.849 67.6335 132.674 67.6335C137.087 67.6335 140.248 66.3803 143.608 64.4732L142.972 68.1421C141.083 69.5043 137.505 71.0844 132.038 71.0844C118.688 71.0844 110.497 61.6217 110.497 45.7657L110.515 45.7838Z" fill="#806666"/>
<path d="M147.802 45.784C147.802 28.7655 157.156 19.9385 169.869 19.9385C173.538 19.9385 177.534 20.6832 179.532 21.1009L178.696 24.8787C174.392 24.0432 170.287 23.6255 167.254 23.6255C154.54 23.6255 151.071 30.7634 151.071 42.4239C151.071 60.078 159.153 67.6337 169.978 67.6337C174.392 67.6337 177.552 66.3804 180.912 64.4734L180.277 68.1422C178.388 69.5044 174.81 71.0846 169.343 71.0846C155.993 71.0846 147.802 61.6218 147.802 45.7658V45.784Z" fill="#806666"/>
<path d="M189.105 50.1974V40.8436C189.105 32.0165 188.887 25.8231 187.743 20.5741H192.356V33.7057C194.772 25.4053 199.603 19.9384 207.904 19.9384C209.902 19.9384 212.008 20.2471 212.953 20.5741L212.426 24.0431C210.12 23.6254 208.013 23.3166 206.015 23.3166C193.301 23.3166 192.356 36.4482 192.356 51.6867C192.356 59.6783 192.574 65.563 193.192 70.4851H188.252C188.887 65.2361 189.087 59.0244 189.087 50.2155L189.105 50.1974Z" fill="#806666"/>
<path d="M221.67 1.75757C223.668 1.75757 225.03 3.11977 225.03 5.11766C225.03 7.11555 223.668 8.47775 221.67 8.47775C219.781 8.47775 218.419 7.11555 218.419 5.11766C218.419 3.11977 219.781 1.75757 221.67 1.75757ZM220.09 50.1974V40.8436C220.09 32.0166 219.872 25.8231 219.254 20.5741H224.195C223.559 25.8231 223.359 32.0166 223.359 40.8436V50.1974C223.359 59.0245 223.577 65.2179 224.195 70.4669H219.254C219.89 65.2179 220.09 59.0063 220.09 50.1974Z" fill="#806666"/>
<mask id="path-6-inside-1_340_1036" fill="white">
<path d="M0.558594 55.6886C0.558594 45.7718 0.576756 35.855 0.558594 25.9382C0.558594 22.796 1.30326 19.8537 2.53832 17.0203C5.24456 10.8632 9.51279 6.10453 15.5428 3.01688C18.467 1.52754 21.591 0.583091 24.8602 0.219838C29.5462 -0.30688 34.1414 0.0745235 38.5549 1.78181C46.4557 4.86947 52.3222 10.173 55.7005 18.0556C57.4077 22.0332 58.1887 26.2106 58.1706 30.5333C58.1524 49.2772 58.1706 68.0029 58.1706 86.7468C58.1706 87.5823 57.771 88 56.9718 88C38.5912 88 20.2106 88 1.82998 88C0.994496 88 0.576757 87.6004 0.576757 86.8013C0.576757 76.4304 0.576757 66.0595 0.576757 55.6886H0.558594ZM1.39407 38.3978C1.53938 38.198 1.61203 38.1435 1.63019 38.0708C4.08215 32.7492 8.15059 29.6615 14.0353 29.1166C14.78 29.044 15.2885 28.7171 15.7244 28.0632C17.3409 25.6657 19.3025 23.5952 21.6091 21.8334C23.5707 20.3259 25.6957 19.1453 27.9661 18.219C28.4201 18.0374 28.8015 17.8376 28.7834 17.2201C28.7652 12.0619 28.7834 6.90369 28.7834 1.7455C28.7834 1.2551 28.6562 1.03715 28.1295 1.03715C26.8581 1.01899 25.5868 1.07348 24.3517 1.29143C17.7223 2.39935 12.1282 5.35987 7.76917 10.5181C3.82787 15.1859 1.66652 20.5983 1.4304 26.7192C1.30326 30.0066 1.39407 33.3122 1.39407 36.6178C1.39407 37.1627 1.39407 37.7076 1.39407 38.4159V38.3978ZM11.8739 66.7679C11.8739 73.1974 11.8739 79.6089 11.8739 86.0385C11.8739 86.7468 12.0192 87.0192 12.8002 87.0192C17.8313 86.9829 22.8805 86.9829 27.9116 87.0192C28.6926 87.0192 28.8379 86.7468 28.8197 86.0385C28.7834 82.3514 28.7652 78.6644 28.8197 74.9774C28.856 72.8705 28.5836 70.8363 28.1295 68.8021C26.0408 59.4483 21.0279 52.2014 12.8729 47.1522C12.6186 46.9887 12.3462 46.6981 12.0556 46.8434C11.7286 47.0069 11.9103 47.4065 11.9103 47.6971C11.9103 54.054 11.9103 60.4291 11.9103 66.786L11.8739 66.7679ZM46.5102 66.8768C46.5102 60.4291 46.5102 53.9813 46.5102 47.5336C46.5102 47.3156 46.6191 47.0432 46.4193 46.9161C46.2014 46.7889 46.0198 47.0432 45.8381 47.1522C42.7141 49.0229 39.9897 51.3477 37.6649 54.1448C32.5612 60.2656 29.9095 67.3127 29.8187 75.2861C29.7823 78.8823 29.8187 82.4967 29.8005 86.1111C29.8005 86.8739 30.0366 87.0555 30.7631 87.0374C35.7215 87.0011 40.6618 87.0011 45.6202 87.0374C46.3648 87.0374 46.5646 86.8376 46.5646 86.0929C46.5283 79.6997 46.5646 73.3064 46.5646 66.9131L46.5102 66.8768ZM57.1353 37.7439C57.1353 35.8005 57.1171 33.8571 57.1353 31.9137C57.1716 28.5536 56.9355 25.2298 55.9729 21.9787C53.6662 14.2414 48.9984 8.39303 41.915 4.50622C38.3733 2.54465 34.5409 1.50938 30.527 1.07347C29.7823 1.00082 29.7642 1.38224 29.7642 1.92712C29.7642 6.97634 29.7823 12.0074 29.7642 17.0566C29.7642 17.7831 30.0548 18.1101 30.6723 18.3643C35.6852 20.4712 39.7173 23.7768 42.7505 28.2812C43.1501 28.8805 43.6404 29.1166 44.367 29.153C48.6352 29.3164 52.0498 31.2417 54.7923 34.4383C55.6641 35.4554 56.318 36.636 57.1171 37.7439H57.1353ZM57.1353 65.0061V59.5936C57.1353 54.3446 57.1353 49.1137 57.1353 43.8647C57.1353 43.3743 57.2261 42.8658 56.427 43.0293C53.6118 43.6105 50.8874 44.5004 48.2901 45.7355C47.7271 46.0079 47.5273 46.3712 47.5273 46.9887C47.5273 60.0295 47.5273 73.0885 47.5273 86.1293C47.5273 86.8739 47.7815 87.0011 48.4536 87.0011C51.0145 86.9647 53.5754 86.9647 56.1364 87.0011C56.9537 87.0011 57.1716 86.7831 57.1716 85.9658C57.1353 78.9732 57.1716 71.9987 57.1716 65.0061H57.1353ZM1.55754 64.9334C1.55754 71.926 1.55754 78.9187 1.55754 85.8931C1.55754 86.7105 1.70284 87.0192 2.61097 87.0011C5.02661 86.9284 7.46041 86.9466 9.87604 87.0011C10.6207 87.0011 10.8932 86.8376 10.875 86.0385C10.8568 73.0521 10.875 60.0477 10.875 47.0614C10.875 46.2622 10.5844 45.8445 9.85788 45.5357C7.49674 44.5367 5.11743 43.6105 2.59281 43.1382C1.5757 42.9384 1.55754 42.9203 1.55754 43.9737C1.55754 50.9663 1.55754 57.959 1.55754 64.9334ZM28.7652 66.2775C28.7652 65.9687 28.7652 65.6599 28.7652 65.3512C28.7652 58.304 28.7471 51.2751 28.7652 44.228C28.7834 39.76 27.2032 36.0548 23.7705 33.1851C21.6273 31.387 19.139 30.3517 16.3238 30.1337C15.8152 30.0974 15.5065 30.2609 15.2522 30.7149C12.8547 34.8924 11.8376 39.4149 11.8013 44.2098C11.8013 45.0998 12.11 45.572 12.8547 45.9898C17.8313 48.805 21.7544 52.71 24.7513 57.5594C26.4404 60.3019 27.6755 63.2443 28.7471 66.2775H28.7652ZM29.7642 66.8042H29.8913C29.964 66.5499 30.0366 66.3138 30.1093 66.0777C31.6712 60.6834 34.2685 55.8884 38.2098 51.8563C40.3712 49.6405 42.7505 47.7515 45.4022 46.1714C46.1832 45.6992 46.5102 45.0635 46.5102 44.1553C46.5102 39.4149 45.3841 34.965 43.1319 30.8058C42.8413 30.2791 42.5144 30.0793 41.915 30.1519C39.7355 30.4607 37.7013 31.1509 35.885 32.3859C31.9255 35.0922 29.9276 38.9245 29.8005 43.6649C29.6915 47.6971 29.7642 51.7292 29.7642 55.7431C29.7642 59.4301 29.7642 63.1172 29.7642 66.8042ZM29.2919 39.542C29.4554 39.1424 29.5462 38.9426 29.637 38.7247C30.3817 36.8539 31.3988 35.1466 32.761 33.6573C35.0858 31.1145 38.0282 29.7705 41.3338 29.1711C41.9513 29.0621 41.9513 28.8805 41.6426 28.4446C38.6094 24.2309 34.7044 21.1069 29.8913 19.1453C29.3828 18.9455 28.9287 18.9455 28.4201 19.1453C23.6252 21.0706 19.7384 24.1764 16.7234 28.3538C16.342 28.8987 16.3964 29.044 17.0866 29.153C21.1551 29.8432 24.5696 31.6594 27.0034 35.0922C27.9297 36.3999 28.5836 37.8529 29.2919 39.5239V39.542ZM44.0219 30.1337C44.0763 30.3517 44.0945 30.4425 44.1308 30.5152C46.4557 34.7834 47.5817 39.3422 47.4728 44.1917C47.4728 45.009 47.8723 44.7184 48.2538 44.5549C50.7421 43.4833 53.2848 42.6115 55.9366 42.0485C56.881 41.8487 56.9174 41.4309 56.7357 40.6681C55.7549 36.5633 53.3575 33.5483 49.6705 31.5686C47.9632 30.6605 46.0924 30.0974 44.04 30.1156L44.0219 30.1337ZM1.721 41.3946C1.63019 41.8668 1.90263 41.9395 2.30221 42.0121C4.95396 42.5207 7.53306 43.338 10.0032 44.4459C10.7842 44.791 10.8387 44.7547 10.8387 43.8829C10.766 39.3241 11.8376 35.0195 13.9082 30.9692C14.0171 30.7331 14.3441 30.4788 14.1079 30.2246C13.9263 30.0248 13.5812 30.1519 13.2906 30.1882C9.74891 30.715 6.84288 32.3859 4.55438 35.1466C3.06504 36.9629 2.12058 39.0516 1.73917 41.3764L1.721 41.3946Z"/>
</mask>
<path d="M0.558594 55.6886C0.558594 45.7718 0.576756 35.855 0.558594 25.9382C0.558594 22.796 1.30326 19.8537 2.53832 17.0203C5.24456 10.8632 9.51279 6.10453 15.5428 3.01688C18.467 1.52754 21.591 0.583091 24.8602 0.219838C29.5462 -0.30688 34.1414 0.0745235 38.5549 1.78181C46.4557 4.86947 52.3222 10.173 55.7005 18.0556C57.4077 22.0332 58.1887 26.2106 58.1706 30.5333C58.1524 49.2772 58.1706 68.0029 58.1706 86.7468C58.1706 87.5823 57.771 88 56.9718 88C38.5912 88 20.2106 88 1.82998 88C0.994496 88 0.576757 87.6004 0.576757 86.8013C0.576757 76.4304 0.576757 66.0595 0.576757 55.6886H0.558594ZM1.39407 38.3978C1.53938 38.198 1.61203 38.1435 1.63019 38.0708C4.08215 32.7492 8.15059 29.6615 14.0353 29.1166C14.78 29.044 15.2885 28.7171 15.7244 28.0632C17.3409 25.6657 19.3025 23.5952 21.6091 21.8334C23.5707 20.3259 25.6957 19.1453 27.9661 18.219C28.4201 18.0374 28.8015 17.8376 28.7834 17.2201C28.7652 12.0619 28.7834 6.90369 28.7834 1.7455C28.7834 1.2551 28.6562 1.03715 28.1295 1.03715C26.8581 1.01899 25.5868 1.07348 24.3517 1.29143C17.7223 2.39935 12.1282 5.35987 7.76917 10.5181C3.82787 15.1859 1.66652 20.5983 1.4304 26.7192C1.30326 30.0066 1.39407 33.3122 1.39407 36.6178C1.39407 37.1627 1.39407 37.7076 1.39407 38.4159V38.3978ZM11.8739 66.7679C11.8739 73.1974 11.8739 79.6089 11.8739 86.0385C11.8739 86.7468 12.0192 87.0192 12.8002 87.0192C17.8313 86.9829 22.8805 86.9829 27.9116 87.0192C28.6926 87.0192 28.8379 86.7468 28.8197 86.0385C28.7834 82.3514 28.7652 78.6644 28.8197 74.9774C28.856 72.8705 28.5836 70.8363 28.1295 68.8021C26.0408 59.4483 21.0279 52.2014 12.8729 47.1522C12.6186 46.9887 12.3462 46.6981 12.0556 46.8434C11.7286 47.0069 11.9103 47.4065 11.9103 47.6971C11.9103 54.054 11.9103 60.4291 11.9103 66.786L11.8739 66.7679ZM46.5102 66.8768C46.5102 60.4291 46.5102 53.9813 46.5102 47.5336C46.5102 47.3156 46.6191 47.0432 46.4193 46.9161C46.2014 46.7889 46.0198 47.0432 45.8381 47.1522C42.7141 49.0229 39.9897 51.3477 37.6649 54.1448C32.5612 60.2656 29.9095 67.3127 29.8187 75.2861C29.7823 78.8823 29.8187 82.4967 29.8005 86.1111C29.8005 86.8739 30.0366 87.0555 30.7631 87.0374C35.7215 87.0011 40.6618 87.0011 45.6202 87.0374C46.3648 87.0374 46.5646 86.8376 46.5646 86.0929C46.5283 79.6997 46.5646 73.3064 46.5646 66.9131L46.5102 66.8768ZM57.1353 37.7439C57.1353 35.8005 57.1171 33.8571 57.1353 31.9137C57.1716 28.5536 56.9355 25.2298 55.9729 21.9787C53.6662 14.2414 48.9984 8.39303 41.915 4.50622C38.3733 2.54465 34.5409 1.50938 30.527 1.07347C29.7823 1.00082 29.7642 1.38224 29.7642 1.92712C29.7642 6.97634 29.7823 12.0074 29.7642 17.0566C29.7642 17.7831 30.0548 18.1101 30.6723 18.3643C35.6852 20.4712 39.7173 23.7768 42.7505 28.2812C43.1501 28.8805 43.6404 29.1166 44.367 29.153C48.6352 29.3164 52.0498 31.2417 54.7923 34.4383C55.6641 35.4554 56.318 36.636 57.1171 37.7439H57.1353ZM57.1353 65.0061V59.5936C57.1353 54.3446 57.1353 49.1137 57.1353 43.8647C57.1353 43.3743 57.2261 42.8658 56.427 43.0293C53.6118 43.6105 50.8874 44.5004 48.2901 45.7355C47.7271 46.0079 47.5273 46.3712 47.5273 46.9887C47.5273 60.0295 47.5273 73.0885 47.5273 86.1293C47.5273 86.8739 47.7815 87.0011 48.4536 87.0011C51.0145 86.9647 53.5754 86.9647 56.1364 87.0011C56.9537 87.0011 57.1716 86.7831 57.1716 85.9658C57.1353 78.9732 57.1716 71.9987 57.1716 65.0061H57.1353ZM1.55754 64.9334C1.55754 71.926 1.55754 78.9187 1.55754 85.8931C1.55754 86.7105 1.70284 87.0192 2.61097 87.0011C5.02661 86.9284 7.46041 86.9466 9.87604 87.0011C10.6207 87.0011 10.8932 86.8376 10.875 86.0385C10.8568 73.0521 10.875 60.0477 10.875 47.0614C10.875 46.2622 10.5844 45.8445 9.85788 45.5357C7.49674 44.5367 5.11743 43.6105 2.59281 43.1382C1.5757 42.9384 1.55754 42.9203 1.55754 43.9737C1.55754 50.9663 1.55754 57.959 1.55754 64.9334ZM28.7652 66.2775C28.7652 65.9687 28.7652 65.6599 28.7652 65.3512C28.7652 58.304 28.7471 51.2751 28.7652 44.228C28.7834 39.76 27.2032 36.0548 23.7705 33.1851C21.6273 31.387 19.139 30.3517 16.3238 30.1337C15.8152 30.0974 15.5065 30.2609 15.2522 30.7149C12.8547 34.8924 11.8376 39.4149 11.8013 44.2098C11.8013 45.0998 12.11 45.572 12.8547 45.9898C17.8313 48.805 21.7544 52.71 24.7513 57.5594C26.4404 60.3019 27.6755 63.2443 28.7471 66.2775H28.7652ZM29.7642 66.8042H29.8913C29.964 66.5499 30.0366 66.3138 30.1093 66.0777C31.6712 60.6834 34.2685 55.8884 38.2098 51.8563C40.3712 49.6405 42.7505 47.7515 45.4022 46.1714C46.1832 45.6992 46.5102 45.0635 46.5102 44.1553C46.5102 39.4149 45.3841 34.965 43.1319 30.8058C42.8413 30.2791 42.5144 30.0793 41.915 30.1519C39.7355 30.4607 37.7013 31.1509 35.885 32.3859C31.9255 35.0922 29.9276 38.9245 29.8005 43.6649C29.6915 47.6971 29.7642 51.7292 29.7642 55.7431C29.7642 59.4301 29.7642 63.1172 29.7642 66.8042ZM29.2919 39.542C29.4554 39.1424 29.5462 38.9426 29.637 38.7247C30.3817 36.8539 31.3988 35.1466 32.761 33.6573C35.0858 31.1145 38.0282 29.7705 41.3338 29.1711C41.9513 29.0621 41.9513 28.8805 41.6426 28.4446C38.6094 24.2309 34.7044 21.1069 29.8913 19.1453C29.3828 18.9455 28.9287 18.9455 28.4201 19.1453C23.6252 21.0706 19.7384 24.1764 16.7234 28.3538C16.342 28.8987 16.3964 29.044 17.0866 29.153C21.1551 29.8432 24.5696 31.6594 27.0034 35.0922C27.9297 36.3999 28.5836 37.8529 29.2919 39.5239V39.542ZM44.0219 30.1337C44.0763 30.3517 44.0945 30.4425 44.1308 30.5152C46.4557 34.7834 47.5817 39.3422 47.4728 44.1917C47.4728 45.009 47.8723 44.7184 48.2538 44.5549C50.7421 43.4833 53.2848 42.6115 55.9366 42.0485C56.881 41.8487 56.9174 41.4309 56.7357 40.6681C55.7549 36.5633 53.3575 33.5483 49.6705 31.5686C47.9632 30.6605 46.0924 30.0974 44.04 30.1156L44.0219 30.1337ZM1.721 41.3946C1.63019 41.8668 1.90263 41.9395 2.30221 42.0121C4.95396 42.5207 7.53306 43.338 10.0032 44.4459C10.7842 44.791 10.8387 44.7547 10.8387 43.8829C10.766 39.3241 11.8376 35.0195 13.9082 30.9692C14.0171 30.7331 14.3441 30.4788 14.1079 30.2246C13.9263 30.0248 13.5812 30.1519 13.2906 30.1882C9.74891 30.715 6.84288 32.3859 4.55438 35.1466C3.06504 36.9629 2.12058 39.0516 1.73917 41.3764L1.721 41.3946Z" fill="#806666" stroke="#806666" stroke-width="4" mask="url(#path-6-inside-1_340_1036)"/>
<path d="M69.5055 83.9981C69.5055 81.6006 70.7224 80.4927 72.5023 80.4927C73.0472 80.4927 73.6284 80.5835 74.0098 80.6561L73.8645 81.31C73.2651 81.201 72.5205 81.092 71.9574 81.092C70.341 81.092 70.0867 82.0547 70.0867 83.544C70.0867 86.0141 70.9766 86.9404 72.4841 86.9404C73.2107 86.9404 73.6284 86.7225 74.1733 86.3411L74.0461 87.0857C73.7919 87.2673 73.247 87.5216 72.4115 87.5216C70.5226 87.5216 69.4873 86.1958 69.4873 83.9799L69.5055 83.9981Z" fill="#806666"/>
<path d="M74.6094 83.9982C74.6094 81.6189 75.9534 80.511 77.4791 80.511C79.1319 80.511 80.3488 81.8368 80.3488 84.089C80.3488 86.4502 79.0047 87.5763 77.4791 87.5763C75.8444 87.5763 74.6094 86.2504 74.6094 84.0164V83.9982ZM77.8242 86.9587C79.2772 86.9587 79.7494 86.0688 79.7494 84.307C79.7494 82.073 78.6052 81.0922 77.1158 81.0922C75.6265 81.0922 75.2087 81.964 75.2087 83.7076C75.2087 85.9779 76.353 86.9587 77.8242 86.9587Z" fill="#806666"/>
<path d="M84.7081 81.7642C84.5628 82.182 84.4175 82.6724 84.2722 83.2354L83.0735 87.4491H83.019C82.6012 87.4491 82.5104 87.4491 82.4377 87.5218L81.4206 83.2354C81.0574 81.7642 80.8213 80.8198 80.6396 80.6018H81.5115C81.5115 80.8924 81.7476 81.8005 82.0563 83.1809L82.8192 86.5592L83.7636 83.1809C84.145 81.8005 84.3812 80.8561 84.363 80.6018H85.1621C85.1258 80.8561 85.3983 81.8005 85.7979 83.1809L86.7605 86.5592L87.5051 83.1809C87.8139 81.8005 87.9955 80.8924 87.9774 80.6018H88.7765C88.6676 80.8379 88.3588 81.7642 88.0319 83.2354L87.0511 87.4491H87.0148C86.5607 87.4491 86.4699 87.4491 86.3972 87.5218L85.1621 83.2354C84.9987 82.6724 84.8534 82.1638 84.7262 81.7642H84.7081Z" fill="#806666"/>
<path d="M89.0127 83.9982C89.0127 81.6189 90.3567 80.511 91.8824 80.511C93.5352 80.511 94.7521 81.8368 94.7521 84.089C94.7521 86.4502 93.4081 87.5763 91.8824 87.5763C90.2478 87.5763 89.0127 86.2504 89.0127 84.0164V83.9982ZM92.2275 86.9587C93.6805 86.9587 94.1527 86.0688 94.1527 84.307C94.1527 82.073 93.0085 81.0922 91.5191 81.0922C90.0298 81.0922 89.6121 81.964 89.6121 83.7076C89.6121 85.9779 90.7563 86.9587 92.2275 86.9587Z" fill="#806666"/>
<path d="M96.3683 84.3796V84.7429C96.3683 86.2504 96.4046 87.1948 96.4954 87.4309H95.66C95.7508 87.1948 95.7689 86.2504 95.7689 84.7429V83.2717C95.7689 81.855 95.7689 81.2738 95.6055 80.5836H98.2572C99.6921 80.5836 100.146 81.5099 100.146 82.3272C100.146 83.3625 99.456 84.2888 98.2572 84.2888H97.2038L100.4 87.4309H99.456L96.3683 84.3614V84.3796ZM98.1846 83.7802C99.1109 83.7802 99.5468 83.4533 99.5468 82.5815C99.5468 81.7097 99.1654 81.1103 98.0393 81.1103H96.4046C96.4046 81.1103 96.3865 81.1103 96.3865 81.3646V83.7621H98.2027L98.1846 83.7802Z" fill="#806666"/>
<path d="M101.181 84.7611V83.2899C101.181 81.7824 101.145 80.8379 101.072 80.6018H101.907C101.817 80.8379 101.78 81.7642 101.78 83.2899V83.7984C103.342 82.0367 103.996 81.2012 104.486 80.6018H105.322C104.741 81.2012 104.014 81.9822 102.271 83.8711L105.613 87.4491H104.723L101.853 84.307L101.762 84.3978V84.7429C101.762 86.2504 101.798 87.1949 101.889 87.431H101.054C101.145 87.1949 101.163 86.2504 101.163 84.7429L101.181 84.7611Z" fill="#806666"/>
<path d="M106.376 84.7611V83.2899C106.376 81.7824 106.339 80.8379 106.267 80.6018H107.102C107.011 80.8379 106.975 81.7642 106.975 83.2899V84.7611C106.975 86.2686 107.011 87.213 107.102 87.4491H106.267C106.357 87.213 106.376 86.2686 106.376 84.7611Z" fill="#806666"/>
<path d="M108.628 81.5099V84.761C108.628 86.2685 108.628 87.1948 108.719 87.4491H108.102C108.192 87.1948 108.211 86.2685 108.211 84.761V83.2899C108.211 81.7824 108.192 80.8379 108.102 80.6018H108.883L112.079 86.5228V83.2717C112.079 81.8005 112.079 80.8742 111.952 80.5836H112.624C112.533 80.8742 112.515 81.746 112.515 83.2717V84.7429C112.515 86.2504 112.515 87.1948 112.624 87.4309H111.843L108.628 81.4736V81.5099Z" fill="#806666"/>
<path d="M113.533 83.9256C113.533 81.6189 114.75 80.511 116.53 80.511C117.057 80.511 117.656 80.6018 118.038 80.6744L117.892 81.3283C117.311 81.2193 116.548 81.1103 115.985 81.1103C114.369 81.1103 114.115 82.073 114.115 83.5805C114.115 86.0506 115.005 86.9587 116.857 86.9587C117.838 86.9587 117.892 86.7044 117.892 85.7963V85.7237C117.892 84.9427 117.856 84.5613 117.783 84.198H118.619C118.528 84.5613 118.492 84.9427 118.492 85.7237V85.8326C118.492 86.9587 117.747 87.5399 116.548 87.5399C114.623 87.5399 113.497 86.2141 113.497 83.9074L113.533 83.9256Z" fill="#806666"/>
<path d="M121.922 81.8369V84.7611C121.922 86.2686 121.958 87.213 122.049 87.4491H121.432C121.522 87.213 121.541 86.2686 121.541 84.7611V83.2899C121.541 81.7824 121.504 80.8379 121.432 80.6018H122.067L124.465 86.6863L126.608 80.7653V80.62H127.335C127.244 80.8561 127.207 81.7824 127.207 83.3081V84.7792C127.207 86.2867 127.244 87.2312 127.335 87.4673H126.499C126.59 87.2312 126.608 86.2867 126.608 84.7792V81.964L124.61 87.4491V87.4855H124.138L121.94 81.8732L121.922 81.8369Z" fill="#806666"/>
<path d="M128.389 85.6692V83.2899C128.389 81.7824 128.353 80.8379 128.28 80.6018H129.116C129.025 80.8379 128.989 81.7642 128.989 83.2899V85.6147C128.989 86.6318 129.842 86.9587 130.823 86.9587C131.895 86.9587 132.113 86.6137 132.113 85.6147V83.2899C132.113 81.7824 132.076 80.8379 132.004 80.6018H132.839C132.748 80.8379 132.712 81.7642 132.712 83.2899V85.6692C132.712 86.8498 131.677 87.5581 130.514 87.5581C129.57 87.5581 128.371 87.104 128.371 85.6692H128.389Z" fill="#806666"/>
<path d="M135.327 87.4491H133.765C133.928 86.759 133.928 86.1596 133.928 84.7611V83.2899C133.928 81.7824 133.892 80.8379 133.819 80.6018H134.655C134.564 80.8379 134.527 81.7642 134.527 83.2899V86.6863C134.527 86.9587 134.527 86.9769 134.782 86.9769H135.327C136.271 86.9406 137.052 86.8679 137.706 86.759V87.4673C137.034 87.4673 136.271 87.4673 135.327 87.4673V87.4491Z" fill="#806666"/>
<path d="M139.34 84.7611V81.1104C138.377 81.1104 137.778 81.183 137.451 81.3465V80.6018C137.542 80.6018 138.323 80.6018 139.649 80.6018H139.939C141.084 80.6018 141.756 80.6018 141.847 80.6018V81.3465C141.501 81.183 140.902 81.1285 139.939 81.1104V84.7611C139.939 86.2686 139.976 87.213 140.048 87.4491H139.213C139.304 87.213 139.34 86.2686 139.34 84.7611ZM137.451 80.6018H141.847H137.451Z" fill="#806666"/>
<path d="M142.702 84.7611V83.2899C142.702 81.7824 142.665 80.8379 142.593 80.6018H143.428C143.337 80.8379 143.301 81.7642 143.301 83.2899V84.7611C143.301 86.2686 143.337 87.213 143.428 87.4491H142.593C142.684 87.213 142.702 86.2686 142.702 84.7611Z" fill="#806666"/>
<path d="M144.208 87.1403L144.39 86.4683C144.935 86.7044 145.479 86.9042 146.351 86.9042C147.55 86.9042 147.768 86.5409 147.768 85.8689C147.768 83.2717 144.226 84.4341 144.226 82.1093C144.226 80.8924 145.261 80.4746 146.242 80.4746C147.06 80.4746 147.659 80.7652 147.968 80.8924L147.786 81.5825C147.332 81.2738 146.605 81.1103 145.879 81.1103C144.989 81.1103 144.844 81.3464 144.844 81.8005C144.844 84.0163 148.422 82.9266 148.422 85.5238C148.422 86.9042 147.441 87.5217 146.115 87.5217C145.225 87.5217 144.462 87.2493 144.208 87.104V87.1403Z" fill="#806666"/>
<path d="M148.951 87.1403L149.132 86.4683C149.677 86.7044 150.222 86.9042 151.094 86.9042C152.293 86.9042 152.511 86.5409 152.511 85.8689C152.511 83.2717 148.969 84.4341 148.969 82.1093C148.969 80.8924 150.004 80.4746 150.985 80.4746C151.802 80.4746 152.402 80.7652 152.71 80.8924L152.529 81.5825C152.075 81.2738 151.348 81.1103 150.622 81.1103C149.732 81.1103 149.586 81.3464 149.586 81.8005C149.586 84.0163 153.146 82.9266 153.146 85.5238C153.146 86.9042 152.166 87.5217 150.84 87.5217C149.95 87.5217 149.187 87.2493 148.933 87.104L148.951 87.1403Z" fill="#806666"/>
<path d="M155.434 87.4491H153.872C154.036 86.759 154.036 86.1596 154.036 84.7611V83.2899C154.036 81.8732 154.036 81.292 153.872 80.6018H155.361C156.306 80.6018 157.069 80.6018 157.741 80.6018V81.2375C157.069 81.1648 156.306 81.1649 155.361 81.1285H154.762C154.653 81.1104 154.635 81.0922 154.635 81.3646V83.6168H155.452C156.524 83.6168 157.141 83.5987 157.686 83.5623V84.198C157.141 84.1617 156.524 84.1435 155.452 84.1435H154.635V86.7045C154.635 86.9769 154.653 86.9769 154.762 86.9769H155.434C156.379 86.9406 157.16 86.9043 157.813 86.8316V87.4673C157.141 87.4673 156.379 87.4673 155.434 87.4673V87.4491Z" fill="#806666"/>
<path d="M160.391 84.7611V81.1104C159.428 81.1104 158.829 81.183 158.502 81.3465V80.6018C158.593 80.6018 159.374 80.6018 160.7 80.6018H160.99C162.134 80.6018 162.807 80.6018 162.897 80.6018V81.3465C162.552 81.183 161.953 81.1285 160.99 81.1104V84.7611C160.99 86.2686 161.027 87.213 161.099 87.4491H160.264C160.355 87.213 160.391 86.2686 160.391 84.7611ZM158.502 80.6018H162.897H158.502Z" fill="#806666"/>
<path d="M163.153 83.9982C163.153 81.6189 164.497 80.511 166.023 80.511C167.658 80.511 168.893 81.8368 168.893 84.089C168.893 86.4502 167.549 87.5763 166.023 87.5763C164.388 87.5763 163.153 86.2504 163.153 84.0164V83.9982ZM166.368 86.9587C167.821 86.9587 168.275 86.0688 168.275 84.307C168.275 82.073 167.131 81.0922 165.642 81.0922C164.152 81.0922 163.735 81.964 163.735 83.7076C163.735 85.9779 164.879 86.9587 166.35 86.9587H166.368Z" fill="#806666"/>
<path d="M170.508 84.3796V84.7429C170.508 86.2504 170.544 87.1948 170.635 87.4309H169.8C169.89 87.1948 169.909 86.2504 169.909 84.7429V83.2717C169.909 81.855 169.909 81.2738 169.745 80.5836H172.397C173.832 80.5836 174.286 81.5099 174.286 82.3272C174.286 83.3625 173.596 84.2888 172.397 84.2888H171.343L174.54 87.4309H173.596L170.508 84.3614V84.3796ZM172.324 83.7802C173.251 83.7802 173.686 83.4533 173.686 82.5815C173.686 81.7097 173.305 81.1103 172.179 81.1103H170.544C170.544 81.1103 170.526 81.1103 170.526 81.3646V83.7621H172.342L172.324 83.7802Z" fill="#806666"/>
<path d="M175.34 84.7611V83.2899C175.34 81.7824 175.304 80.8379 175.231 80.6018H176.067C175.976 80.8379 175.94 81.7642 175.94 83.2899V84.7611C175.94 86.2686 175.976 87.213 176.067 87.4491H175.231C175.322 87.213 175.34 86.2686 175.34 84.7611Z" fill="#806666"/>
<path d="M177.576 84.7428L178.847 80.6199H179.12C179.338 80.6199 179.392 80.6199 179.501 80.5291L180.809 84.761C181.299 86.3048 181.572 87.2674 181.717 87.4854H180.845C180.863 87.2856 180.736 86.7588 180.5 85.9779H177.794C177.576 86.7588 177.449 87.2856 177.485 87.4854H176.704C176.795 87.2492 177.122 86.3048 177.594 84.761L177.576 84.7428ZM180.337 85.433L179.138 81.5643L177.921 85.433H180.337Z" fill="#806666"/>
<path d="M183.876 87.4491H182.314C182.478 86.759 182.478 86.1596 182.478 84.7611V83.2899C182.478 81.7824 182.442 80.8379 182.369 80.6018H183.204C183.114 80.8379 183.077 81.7642 183.077 83.2899V86.6863C183.077 86.9587 183.077 86.9769 183.35 86.9769H183.895C184.839 86.9406 185.62 86.8679 186.274 86.759V87.4673C185.602 87.4673 184.839 87.4673 183.895 87.4673L183.876 87.4491Z" fill="#806666"/>
<path d="M189.017 84.7611V83.2899C189.017 81.8732 189.017 81.292 188.854 80.6018H190.416C191.36 80.6018 192.141 80.6018 192.795 80.6018V81.2375C192.105 81.1648 191.36 81.1467 190.416 81.1285H189.743C189.635 81.1104 189.616 81.0922 189.616 81.3646V83.6168H190.488C191.542 83.6168 192.159 83.5987 192.704 83.5623V84.198C192.159 84.1617 191.542 84.1435 190.488 84.1435H189.616V84.7792C189.616 86.2867 189.653 87.2312 189.743 87.4673H188.908C188.999 87.2312 189.017 86.2867 189.017 84.7792V84.7611Z" fill="#806666"/>
<path d="M195.263 87.4491H193.701C193.865 86.759 193.865 86.1596 193.865 84.7611V83.2899C193.865 81.8732 193.865 81.292 193.701 80.6018H195.19C196.135 80.6018 196.916 80.6018 197.57 80.6018V81.2375C196.898 81.1648 196.135 81.1649 195.19 81.1285H194.591C194.482 81.1104 194.464 81.0922 194.464 81.3646V83.6168H195.281C196.335 83.6168 196.97 83.5987 197.515 83.5623V84.198C196.97 84.1617 196.353 84.1435 195.281 84.1435H194.464V86.7045C194.464 86.9769 194.482 86.9769 194.591 86.9769H195.263C196.208 86.9406 196.989 86.9043 197.642 86.8316V87.4673C196.97 87.4673 196.208 87.4673 195.263 87.4673V87.4491Z" fill="#806666"/>
<path d="M199.078 81.8369V84.7611C199.078 86.2686 199.115 87.213 199.205 87.4491H198.588C198.679 87.213 198.697 86.2686 198.697 84.7611V83.2899C198.697 81.7824 198.661 80.8379 198.588 80.6018H199.224L201.621 86.6863L203.764 80.7653V80.62H204.491C204.4 80.8561 204.364 81.7824 204.364 83.3081V84.7792C204.364 86.2867 204.4 87.2312 204.491 87.4673H203.655C203.746 87.2312 203.764 86.2867 203.764 84.7792V81.964L201.766 87.4491V87.4855H201.294L199.096 81.8732L199.078 81.8369Z" fill="#806666"/>
<path d="M205.598 84.7611V83.2899C205.598 81.7824 205.562 80.8379 205.489 80.6018H206.325C206.234 80.8379 206.198 81.7642 206.198 83.2899V84.7611C206.198 86.2686 206.234 87.213 206.325 87.4491H205.489C205.58 87.213 205.598 86.2686 205.598 84.7611Z" fill="#806666"/>
<path d="M207.85 81.5099V84.761C207.85 86.2685 207.85 87.1948 207.941 87.4491H207.323C207.414 87.1948 207.432 86.2685 207.432 84.761V83.2899C207.432 81.7824 207.414 80.8379 207.323 80.6018H208.122L211.319 86.5228V83.2717C211.319 81.8005 211.319 80.8742 211.192 80.5836H211.864C211.773 80.8742 211.755 81.746 211.755 83.2717V84.7429C211.755 86.2504 211.755 87.1948 211.864 87.4309H211.083L207.868 81.4736L207.85 81.5099Z" fill="#806666"/>
<path d="M212.974 84.7611V83.2899C212.974 81.7824 212.938 80.8379 212.865 80.6018H213.701C213.61 80.8379 213.574 81.7642 213.574 83.2899V84.7611C213.574 86.2686 213.61 87.213 213.701 87.4491H212.865C212.956 87.213 212.974 86.2686 212.974 84.7611Z" fill="#806666"/>
<path d="M215.226 81.5099V84.761C215.226 86.2685 215.226 87.1948 215.317 87.4491H214.699C214.79 87.1948 214.808 86.2685 214.808 84.761V83.2899C214.808 81.7824 214.79 80.8379 214.699 80.6018H215.498L218.695 86.5228V83.2717C218.695 81.8005 218.695 80.8742 218.568 80.5836H219.24C219.149 80.8742 219.131 81.746 219.131 83.2717V84.7429C219.131 86.2504 219.131 87.1948 219.24 87.4309H218.459L215.244 81.4736L215.226 81.5099Z" fill="#806666"/>
<path d="M220.13 83.9982C220.13 81.6189 221.474 80.511 223 80.511C224.652 80.511 225.869 81.8368 225.869 84.089C225.869 86.4502 224.525 87.5763 223 87.5763C221.365 87.5763 220.13 86.2504 220.13 84.0164V83.9982ZM223.345 86.9587C224.798 86.9587 225.27 86.0688 225.27 84.307C225.27 82.073 224.126 81.0922 222.636 81.0922C221.147 81.0922 220.729 81.964 220.729 83.7076C220.729 85.9779 221.874 86.9587 223.345 86.9587Z" fill="#806666"/>
</svg>
